<svg xmlns="http://www.w3.org/2000/svg" viewBox="0 0 256 192">
  <defs>
    <linearGradient id="bg" x1="0" y1="0" x2="1" y2="1">
      <stop offset="0" stop-color="rgb(254 224 228)"/>
      <stop offset="1" stop-color="rgb(253 191 200)"/>
    </linearGradient>
  </defs>
  <rect width="256" height="192" rx="28" fill="url(#bg)"/>
  <circle cx="38" cy="34" r="26" fill="white" opacity="0.22"/>
  <circle cx="218" cy="152" r="34" fill="white" opacity="0.18"/>
  <circle cx="174" cy="42" r="22" fill="#fb7185" opacity="0.35"/><path d="M24 150 C58 126 82 134 112 112 C140 92 170 98 200 76" fill="none" stroke="#fb7185" stroke-width="8" stroke-linecap="round" opacity="0.35"/><path d="M54 157h138" stroke="rgb(145 73 92)" stroke-width="9" stroke-linecap="round"/><path d="M80 150c-16-28 22-37 12-70 32 20 48 50 27 77z" fill="#fb7185" opacity="0.85"/><path d="M128 151c20-19 17-39 1-62 32 13 48 38 38 62z" fill="white" opacity="0.55"/><circle cx="64" cy="76" r="18" fill="white" opacity="0.45"/>
</svg>
