<svg xmlns="http://www.w3.org/2000/svg" viewBox="0 0 256 192">
  <defs>
    <linearGradient id="bg" x1="0" y1="0" x2="1" y2="1">
      <stop offset="0" stop-color="rgb(220 235 254)"/>
      <stop offset="1" stop-color="rgb(183 215 253)"/>
    </linearGradient>
  </defs>
  <rect width="256" height="192" rx="28" fill="url(#bg)"/>
  <circle cx="38" cy="34" r="26" fill="white" opacity="0.22"/>
  <circle cx="218" cy="152" r="34" fill="white" opacity="0.18"/>
  <circle cx="174" cy="42" r="22" fill="#60a5fa" opacity="0.35"/><path d="M24 150 C58 126 82 134 112 112 C140 92 170 98 200 76" fill="none" stroke="#60a5fa" stroke-width="8" stroke-linecap="round" opacity="0.35"/><path d="M56 154V62c28-12 54-8 72 10 18-18 44-22 72-10v92c-28-12-54-8-72 10-18-18-44-22-72-10z" fill="white" opacity="0.8"/><path d="M128 72v92M77 91h32M77 116h32M147 91h32M147 116h32" stroke="rgb(60 101 156)" stroke-width="6" stroke-linecap="round"/><circle cx="128" cy="54" r="17" fill="#60a5fa"/>
</svg>
