<svg xmlns="http://www.w3.org/2000/svg" viewBox="0 0 256 192">
  <defs>
    <linearGradient id="bg" x1="0" y1="0" x2="1" y2="1">
      <stop offset="0" stop-color="rgb(206 242 220)"/>
      <stop offset="1" stop-color="rgb(156 229 183)"/>
    </linearGradient>
  </defs>
  <rect width="256" height="192" rx="28" fill="url(#bg)"/>
  <circle cx="38" cy="34" r="26" fill="white" opacity="0.22"/>
  <circle cx="218" cy="152" r="34" fill="white" opacity="0.18"/>
  <circle cx="174" cy="42" r="22" fill="#22c55e" opacity="0.35"/><path d="M24 150 C58 126 82 134 112 112 C140 92 170 98 200 76" fill="none" stroke="#22c55e" stroke-width="8" stroke-linecap="round" opacity="0.35"/><path d="M42 138c38 16 98 16 144 0l-17 24H58z" fill="rgb(25 119 71)"/><path d="M74 66v66M120 52v80M163 74v58" stroke="rgb(25 119 71)" stroke-width="6" stroke-linecap="round"/><path d="M80 70l35-17v31zM126 57l40 20-40 20z" fill="#22c55e"/><rect x="136" y="118" width="44" height="28" rx="5" fill="white" opacity="0.75"/>
</svg>
